<?xml version="1.0" encoding="UTF-8" standalone="no"?>
<!DOCTYPE svg PUBLIC "-//W3C//DTD SVG 1.1//EN" "http://www.w3.org/Graphics/SVG/1.1/DTD/svg11.dtd">
<svg width="100%" height="100%" viewBox="0 0 1345 299" version="1.1" xmlns="http://www.w3.org/2000/svg" xmlns:xlink="http://www.w3.org/1999/xlink" xml:space="preserve" xmlns:serif="http://www.serif.com/" style="fill-rule:evenodd;clip-rule:evenodd;stroke-linejoin:round;stroke-miterlimit:2;">
    <g transform="matrix(1,0,0,1,-287.802,-390.911)">
        <g transform="matrix(2.32031,0,0,2.32031,-996.87,-277.523)">
            <g transform="matrix(14.2977,0,0,14.2977,-8734.6,-5267.64)">
                <g transform="matrix(12,0,0,12,649.035,397.443)">
                    <path d="M0.187,-0.521L0.187,-0.218C0.187,-0.185 0.197,-0.158 0.217,-0.138C0.236,-0.118 0.262,-0.108 0.295,-0.108C0.318,-0.108 0.339,-0.113 0.358,-0.122C0.376,-0.131 0.391,-0.143 0.403,-0.16L0.403,-0.521L0.54,-0.521L0.54,-0L0.403,-0L0.403,-0.042C0.383,-0.025 0.361,-0.013 0.336,-0.004C0.311,0.005 0.285,0.01 0.256,0.01C0.196,0.01 0.147,-0.01 0.108,-0.049C0.069,-0.087 0.05,-0.137 0.05,-0.198L0.05,-0.521L0.187,-0.521Z" style="fill:rgb(0,73,144);fill-rule:nonzero;"/>
                </g>
                <g transform="matrix(12,0,0,12,656.151,397.443)">
                    <path d="M0.054,-0L0.054,-0.521L0.191,-0.521L0.191,-0.48C0.211,-0.497 0.233,-0.509 0.258,-0.518C0.282,-0.527 0.308,-0.531 0.337,-0.531C0.397,-0.531 0.446,-0.512 0.485,-0.473C0.524,-0.434 0.543,-0.385 0.543,-0.324L0.543,-0L0.406,-0L0.406,-0.304C0.406,-0.337 0.396,-0.363 0.377,-0.383C0.357,-0.403 0.331,-0.413 0.298,-0.413C0.275,-0.413 0.255,-0.408 0.236,-0.4C0.218,-0.391 0.203,-0.378 0.191,-0.361L0.191,-0L0.054,-0Z" style="fill:rgb(0,73,144);fill-rule:nonzero;"/>
                </g>
                <g transform="matrix(12,0,0,12,663.267,397.443)">
                    <path d="M0.122,-0.583C0.101,-0.583 0.082,-0.591 0.067,-0.606C0.052,-0.621 0.044,-0.64 0.044,-0.661C0.044,-0.682 0.052,-0.701 0.067,-0.716C0.082,-0.731 0.101,-0.739 0.122,-0.739C0.143,-0.739 0.162,-0.731 0.177,-0.716C0.192,-0.701 0.2,-0.682 0.2,-0.661C0.2,-0.64 0.192,-0.621 0.177,-0.606C0.162,-0.591 0.143,-0.583 0.122,-0.583ZM0.191,-0.521L0.191,-0L0.054,-0L0.054,-0.521L0.191,-0.521Z" style="fill:rgb(0,73,144);fill-rule:nonzero;"/>
                </g>
                <g transform="matrix(12,0,0,12,666.195,397.443)">
                    <path d="M0.602,-0.26C0.602,-0.223 0.595,-0.188 0.581,-0.155C0.567,-0.122 0.548,-0.094 0.524,-0.07C0.5,-0.046 0.471,-0.027 0.439,-0.014C0.406,0 0.37,0.007 0.333,0.007C0.307,0.007 0.282,0.003 0.257,-0.004C0.232,-0.011 0.21,-0.022 0.189,-0.035L0.189,-0L0.054,-0L0.054,-0.7L0.191,-0.73L0.191,-0.48C0.212,-0.495 0.234,-0.507 0.26,-0.516C0.284,-0.524 0.31,-0.528 0.337,-0.528C0.374,-0.528 0.408,-0.521 0.441,-0.507C0.473,-0.493 0.501,-0.474 0.525,-0.45C0.549,-0.426 0.568,-0.398 0.582,-0.365C0.595,-0.332 0.602,-0.297 0.602,-0.26ZM0.315,-0.411C0.29,-0.411 0.267,-0.407 0.246,-0.399C0.225,-0.39 0.206,-0.378 0.191,-0.362L0.191,-0.157C0.206,-0.142 0.224,-0.131 0.246,-0.122C0.267,-0.113 0.29,-0.109 0.315,-0.109C0.358,-0.109 0.394,-0.124 0.423,-0.153C0.452,-0.182 0.467,-0.217 0.467,-0.26C0.467,-0.303 0.452,-0.339 0.423,-0.368C0.393,-0.397 0.357,-0.411 0.315,-0.411Z" style="fill:rgb(0,73,144);fill-rule:nonzero;"/>
                </g>
                <g transform="matrix(12,0,0,12,673.515,397.443)">
                    <path d="M0.12,-0.153C0.143,-0.153 0.162,-0.145 0.178,-0.129C0.194,-0.113 0.202,-0.094 0.202,-0.071C0.202,-0.049 0.194,-0.03 0.178,-0.014C0.162,0.002 0.143,0.01 0.12,0.01C0.098,0.01 0.079,0.002 0.063,-0.014C0.047,-0.03 0.039,-0.049 0.039,-0.071C0.039,-0.094 0.047,-0.113 0.063,-0.129C0.079,-0.145 0.098,-0.153 0.12,-0.153Z" style="fill:rgb(0,73,144);fill-rule:nonzero;"/>
                </g>
                <g transform="matrix(12,0,0,12,676.143,397.443)">
                    <path d="M0.521,-0.065C0.489,-0.039 0.456,-0.02 0.423,-0.008C0.389,0.004 0.351,0.01 0.31,0.01C0.271,0.01 0.234,0.003 0.2,-0.011C0.165,-0.025 0.136,-0.044 0.111,-0.068C0.086,-0.092 0.066,-0.121 0.051,-0.154C0.037,-0.187 0.03,-0.222 0.03,-0.26C0.03,-0.297 0.037,-0.333 0.051,-0.366C0.064,-0.399 0.083,-0.427 0.107,-0.452C0.131,-0.476 0.16,-0.495 0.193,-0.509C0.226,-0.523 0.261,-0.53 0.298,-0.53C0.335,-0.53 0.369,-0.523 0.401,-0.508C0.432,-0.494 0.46,-0.475 0.483,-0.45C0.505,-0.425 0.524,-0.396 0.537,-0.362C0.55,-0.327 0.556,-0.29 0.556,-0.25L0.556,-0.214L0.168,-0.214C0.177,-0.181 0.195,-0.155 0.222,-0.135C0.249,-0.115 0.28,-0.105 0.316,-0.105C0.339,-0.105 0.36,-0.109 0.38,-0.116C0.4,-0.123 0.417,-0.134 0.431,-0.147L0.521,-0.065ZM0.295,-0.417C0.264,-0.417 0.237,-0.407 0.214,-0.389C0.191,-0.37 0.176,-0.344 0.167,-0.312L0.422,-0.312C0.413,-0.343 0.398,-0.368 0.375,-0.388C0.352,-0.407 0.325,-0.417 0.295,-0.417Z" style="fill:rgb(0,73,144);fill-rule:nonzero;"/>
                </g>
            </g>
            <g transform="matrix(0.944458,0,0,0.944458,488.397,65.6591)">
                <g transform="matrix(217.944,0,0,217.944,572.737,381.23)">
                    <path d="M0.329,-0.129L0.222,-0.129L0.222,-0.306L0.046,-0.306L0.046,-0.412L0.222,-0.412L0.222,-0.584L0.329,-0.584L0.329,-0.412L0.504,-0.412L0.504,-0.306L0.329,-0.306L0.329,-0.129Z" style="fill:rgb(251,190,0);fill-rule:nonzero;"/>
                </g>
            </g>
        </g>
    </g>
</svg>
